Coordinates
version=1
nRows=22
nColumns=24
inDegrees=yes

Units are S.I. units (second, meters, Newtons, ...)
Angles are in degrees.

endheader
time	pelvis_tilt	pelvis_list	pelvis_rotation	pelvis_tx	pelvis_ty	pelvis_tz	hip_flexion_r	hip_adduction_r	hip_rotation_r	knee_angle_r	ankle_angle_r	subtalar_angle_r	mtp_angle_r	hip_flexion_l	hip_adduction_l	hip_rotation_l	knee_angle_l	ankle_angle_l	subtalar_angle_l	mtp_angle_l	lumbar_extension	lumbar_bending	lumbar_rotation
      7.08000000	      3.76990303	      1.12751914	      6.71022709	      0.31659346	      1.06793935	      0.27347272	     -6.07091481	      4.95981161	     -7.22208648	     -2.62449399	      6.54894953	    -18.14279053	      0.00000000	     14.96688055	      1.92608094	      3.13539541	    -60.61643036	    -11.59365340	    -39.91943483	      0.00000000	    -14.40033687	     -2.13882496	     -3.91243571
      7.09000000	      3.38839471	      1.19416875	      6.23773046	      0.32782271	      1.06818838	      0.27370007	     -6.37361522	      4.89364985	     -7.27699415	     -2.49568711	      6.59795553	    -17.91434345	      0.00000000	     16.31726918	      2.14603052	      2.89990732	    -59.24724196	     -9.62788666	    -38.42097227	      0.00000000	    -14.20561522	     -2.32716247	     -3.44937532
      7.10000000	      3.04296956	      1.20723940	      5.71225235	      0.33898924	      1.06832389	      0.27393308	     -6.63541249	      4.87180522	     -7.30016048	     -2.48782515	      6.65393573	    -17.71615535	      0.00000000	     17.54506780	      2.24410839	      2.59155027	    -57.61219908	     -7.62374535	    -36.61513801	      0.00000000	    -14.05349166	     -2.45015364	     -2.96258441
      7.11000000	      2.74155830	      1.18078135	      5.13694466	      0.35010234	      1.06836987	      0.27418296	     -6.88357472	      4.88132978	     -7.28959393	     -2.57313471	      6.71261417	    -17.53879913	      0.00000000	     18.62773632	      2.23326137	      2.21236525	    -55.70222641	     -5.65909309	    -34.58602391	      0.00000000	    -13.95733183	     -2.52573008	     -2.45544961
      7.12000000	      2.48365301	      1.13041133	      4.52047271	      0.36118184	      1.06834268	      0.27444501	     -7.13947112	      4.90647585	     -7.25790155	     -2.71749961	      6.77699171	    -17.36710124	      0.00000000	     19.54780372	      2.13261785	      1.76369431	    -53.50396000	     -3.83559591	    -32.44790130	      0.00000000	    -13.91784983	     -2.56795278	     -1.94294663
      7.13000000	      2.26877604	      1.06209262	      3.87696142	      0.37227501	      1.06825064	      0.27471328	     -7.42374634	      4.94347681	     -7.20871816	     -2.89236685	      6.85258449	    -17.19738602	      0.00000000	     20.28561694	      1.95860569	      1.26033548	    -51.00007627	     -2.22992753	    -30.33437051	      0.00000000	    -13.92648246	     -2.58819766	     -1.44390158
      7.14000000	      2.08791295	      0.97893676	      3.22288822	      0.38342553	      1.06809169	      0.27497746	     -7.74940442	      4.99023263	     -7.15743895	     -3.06277410	      6.92535844	    -17.02057749	      0.00000000	     20.83509801	      1.72566860	      0.71232298	    -48.18016451	     -0.90468155	    -28.33267123	      0.00000000	    -13.96556967	     -2.59028412	     -0.97212063
      7.15000000	      1.92888225	      0.87748883	      2.57234587	      0.39465377	      1.06785253	      0.27520975	     -8.10619624	      5.04826332	     -7.11721594	     -3.23119628	      6.98417908	    -16.83366068	      0.00000000	     21.19867022	      1.44783831	      0.13694180	    -45.04027962	      0.12724213	    -26.50432428	      0.00000000	    -14.02263694	     -2.56667318	     -0.55575243
      7.16000000	      1.78446560	      0.74524096	      1.93430669	      0.40602312	      1.06751259	      0.27540177	     -8.51057451	      5.13181996	     -7.09931920	     -3.35834022	      7.02454596	    -16.63454967	      0.00000000	     21.37674726	      1.11930064	     -0.47114342	    -41.58516394	      0.90375939	    -24.86501992	      0.00000000	    -14.07508494	     -2.50207908	     -0.18942663
      7.17000000	      1.65055549	      0.57008434	      1.31010569	      0.41757804	      1.06704866	      0.27554590	     -8.97043073	      5.25176582	     -7.07645922	     -3.43049903	      7.03236994	    -16.41237294	      0.00000000	     21.37437453	      0.73601259	     -1.11904954	    -37.83515738	      1.46363356	    -23.38082699	      0.00000000	    -14.11050870	     -2.38213727	      0.12273173
      7.18000000	      1.51954104	      0.33110669	      0.70637594	      0.42932880	      1.06642065	      0.27562316	     -9.47372276	      5.42702646	     -7.07780077	     -3.45789249	      7.00586780	    -16.17395240	      0.00000000	     21.21811244	      0.28672882	     -1.81409929	    -33.84030968	      1.90488007	    -21.93730808	      0.00000000	    -14.12198825	     -2.17848242	      0.39680353
      7.19000000	      1.39445219	      0.02496842	      0.10670998	      0.44130095	      1.06561278	      0.27564604	    -10.03099981	      5.65651911	     -7.04154188	     -3.43643039	      6.95630532	    -15.91130841	      0.00000000	     20.91760725	     -0.22744929	     -2.58110459	    -29.64502559	      2.25286958	    -20.49097283	      0.00000000	    -14.11002396	     -1.88993256	      0.63296137
      7.20000000	      1.28279084	     -0.35327220	     -0.48896505	      0.45349768	      1.06461391	      0.27559778	    -10.64479518	      5.94084924	     -6.96085786	     -3.38103221	      6.88542253	    -15.63571179	      0.00000000	     20.49301687	     -0.79787003	     -3.41826986	    -25.32247161	      2.54930017	    -18.96535339	      0.00000000	    -14.08685951	     -1.50910337	      0.84596015
      7.21000000	      1.19025169	     -0.79928210	     -1.08723872	      0.46591576	      1.06342026	      0.27547841	    -11.31658078	      6.26984449	     -6.81154554	     -3.30486865	      6.79739634	    -15.35213059	      0.00000000	     19.96738180	     -1.40586577	     -4.28835463	    -20.95438676	      2.78619578	    -17.36047621	      0.00000000	    -14.06661878	     -1.04400750	      1.04122470
      7.22000000	      1.12893946	     -1.29743401	     -1.68936226	      0.47853178	      1.06205564	      0.27525670	    -12.04357462	      6.62025597	     -6.58376336	     -3.23863902	      6.70337561	    -15.07694541	      0.00000000	     19.34763356	     -2.01603495	     -5.08568890	    -16.60818093	      2.89246034	    -15.80604339	      0.00000000	    -14.07090337	     -0.50772441	      1.23442790
      7.23000000	      1.09701082	     -1.83707135	     -2.29441885	      0.49133383	      1.06052809	      0.27491841	    -12.81235752	      6.97640093	     -6.25478127	     -3.20516181	      6.61438193	    -14.81660073	      0.00000000	     18.64205515	     -2.60797959	     -5.61469620	    -12.34573793	      2.77505242	    -14.56722009	      0.00000000	    -14.10599448	      0.08461175	      1.43204818
      7.24000000	      1.08157475	     -2.40748876	     -2.90051497	      0.50429442	      1.05884347	      0.27447940	    -13.59392614	      7.32629129	     -5.80693483	     -3.23177024	      6.53832176	    -14.55035188	      0.00000000	     17.88901671	     -3.19611263	     -5.76256404	     -8.27614535	      2.47946850	    -13.77361880	      0.00000000	    -14.16143060	      0.71441140	      1.64253713
      7.25000000	      1.17671901	     -2.98841341	     -3.43288048	      0.51735372	      1.05714922	      0.27387114	    -14.47529714	      7.66188190	     -5.31617589	     -3.31950836	      6.36876378	    -14.40243689	      0.00000000	     17.02463765	     -3.77204148	     -5.40102026	     -4.49517147	      1.91963643	    -13.59884341	      0.00000000	    -14.37159048	      1.36331486	      1.77882630
      7.26000000	      1.27024403	     -3.55848761	     -3.94768492	      0.53047415	      1.05537905	      0.27320362	    -15.29913169	      7.95791082	     -4.72842592	     -3.53682571	      6.22075951	    -14.34653825	      0.00000000	     16.20156970	     -4.37735272	     -4.64995909	     -1.10998853	      1.18937247	    -14.08635615	      0.00000000	    -14.59431913	      1.98715052	      1.96437865
      7.27000000	      1.41518377	     -4.05610243	     -4.39395132	      0.54361848	      1.05370071	      0.27243358	    -16.10820208	      8.16502096	     -4.13808511	     -3.87773608	      6.05553623	    -14.29959770	      0.00000000	     15.48269785	     -4.94362754	     -4.13910951	      1.67292908	      0.64090696	    -14.45542391	      0.00000000	    -14.89684690	      2.52244504	      2.09302384
      7.28000000	      1.60179781	     -4.41725553	     -4.79005210	      0.55679382	      1.05219128	      0.27155265	    -16.85995487	      8.21458003	     -3.62401800	     -4.37926138	      5.96483074	    -14.15354260	      0.00000000	     14.92882098	     -5.36332050	     -4.18495502	      3.75122566	      0.46630504	    -14.36354169	      0.00000000	    -15.24781633	      2.89087794	      2.20365496
      7.29000000	      1.86562045	     -4.66039094	     -5.07695442	      0.57003502	      1.05087433	      0.27044859	    -17.59590706	      8.14575364	     -3.22203669	     -5.01886876	      5.78508668	    -14.09741525	      0.00000000	     14.46845962	     -5.60960901	     -4.33806950	      5.17350454	      0.40050788	    -14.38131886	      0.00000000	    -15.68067538	      3.13742868	      2.23926825
